<svg xmlns:svg="http://www.w3.org/2000/svg" xmlns="http://www.w3.org/2000/svg"
   height="40"
   width="40"
   id="svg12"
   version="1.1"
   viewBox="0 0 100 100"><defs
     id="defs16" /><path
     style="fill:#006aa6"
     id="path2"
     d="M 100,50 A 50,50 0 1 1 0,50 50,50 0 0 1 100,50" /><g
     style="fill:#ffffff"
     id="g8"><path
       id="path4"
       d="m 61,43.7 a 4.9,4.9 0 0 0 -5,5 c 0,2.6 2.3,4.8 5,4.8 2.7,0 4.9,-2.2 4.9,-4.9 0,-2.7 -2.2,-4.9 -5,-4.9" /><path
       id="path6"
       d="m 69.7,55.8 -0.1,1.8 a 3.9,3.9 0 0 1 -3.2,0.6 c -1.6,-0.5 -3.1,-1.4 -4.3,-2.5 l -4.1,4 c 2.5,2.5 5.7,4.2 9.4,4.7 -3,5.3 -8.8,9 -15.3,9 H 34.5 V 49.5 A 44,44 0 0 0 63.9,32.3 c 1.5,1 2.8,2.2 3.7,3.5 1.3,2.5 2,5.3 2,8.3 V 55.7 Z M 52,20.8 H 28.6 v 58.4 h 23.5 c 13,0 23.4,-10.5 23.4,-23.4 V 44.2 A 23.4,23.4 0 0 0 52.1,20.8 Z" /></g><path
     style="fill:none"
     id="path10"
     d="M 20.8,20.8 H 79.1 V 79.1 H 20.8 Z" /></svg>
