<svg xmlns="http://www.w3.org/2000/svg" width="723" height="272" fill-rule="evenodd"><path d="M146.313 104.458c-12.424 0-22.5 10.072-22.5 22.49s10.075 22.492 22.5 22.492 22.5-10.072 22.5-22.492-10.076-22.49-22.5-22.49"/><path d="M190 163.025c0 2.805-.145 5.572-.423 8.303-2.943 2.088-6.494 3.37-10.378 3.37-1.46 0-2.86-.227-4.224-.554a49.594 49.594 0 01-19.755-11.974l-19.107 19.107c11.484 11.407 26.595 19.1 43.42 21.423-13.9 24.617-40.29 41.3-70.533 41.3H28V134.216c55.35-7.376 103.576-37.152 135.41-79.86 7.025 4.872 12.91 10.497 17.028 16.523A80.394 80.394 0 01190 108.972v54.053zM109 1H1v270h108c59.647 0 108-48.35 108-107.975v-54.053C217 49.342 168.66 1 109 1zM281.2 180.95c0-11.155 6.857-18.004 26.98-18.004 13.413 0 26.902 0 44.966 9.003v-26.994c-14.745-8.997-35.982-9-54.037-9-31.476 0-44.9 18.002-44.9 40.5v27.002s-.022-.078 0 27c0 22.5 13.414 40.498 44.9 40.498 18.055 0 39.292-.013 54.037-9.004.143 0 0-26.995 0-26.995v-.005c-18.064 9.004-31.553 9.004-44.967 9.004-20.122 0-26.98-6.843-26.98-18.005v-45zm180.113 62.997h-36s-15.832.413-15.75-13.5c-.082-13.915 15.998-18.08 51.75-18v31.5zm-18-108c-18.063 0-39.316.014-54.077 9.005-.144 0 0 26.995 0 26.995v.005c18.077-9.006 31.577-9.006 45-9.006 20.137 0 27.077 6.85 27.077 18.004v8.996c-42.98-.058-81 9-81 40.5s18 40.5 45 40.5h63v-67.5l-.077-27c0-22.5-13.423-40.5-44.923-40.5zm74.255 22.5l-.005 112.5h27l-.043-94.51c0-14.725 44.93-17.992 44.93-17.992v-22.5c-58.388 0-71.882 22.5-71.882 22.5M695.313 243.884h-27s-27 .916-27-26.98-1.328-46.647 10.584-54.924 43.416.944 43.416.944v80.96zm0-179.908h-9c8.814 28.555 8.995 74.544 9 76.402-1.63-.527-14.486-4.44-36-4.44-14.978 0-44.857.7-45 44.976v22.5c.03 2.443.053 2.76.072 2.16.048-11.44.048-1.76 0 0l-.073 20.33c.145 49.473 45 44.976 45 44.976h63V63.976h-27z"/></svg>